<svg width="262" height="182" viewBox="0 0 262 182" fill="none" xmlns="http://www.w3.org/2000/svg">
<path d="M109.004 19.8406C117.453 11.1138 129.213 5.69057 142.214 5.69057C159.498 5.69057 174.587 15.2576 182.622 29.4554C189.609 26.3618 197.337 24.6337 205.459 24.6337C236.638 24.6337 261.919 49.9357 261.919 81.1479C261.919 112.36 236.638 137.662 205.459 137.662C201.648 137.662 197.933 137.28 194.334 136.564C187.261 149.081 173.779 157.541 158.304 157.541C151.828 157.541 145.698 156.061 140.251 153.416C133.081 170.154 116.375 181.888 96.8976 181.888C77.4199 181.888 59.3376 169.161 52.7071 151.306C49.8105 151.917 46.7984 152.232 43.7189 152.232C19.5739 152.232 0 132.611 0 108.407C0 92.1853 8.79575 78.0257 21.8546 70.4447C19.1601 64.2958 17.6685 57.5263 17.6685 50.4035C17.6877 22.5713 40.4566 0 68.5568 0C85.0512 0 99.7076 7.78157 109.004 19.8406Z" fill="#00B3FF"/>
</svg>
